<mxfile host="65bd71144e">
    <diagram id="kyPkWmFPmOYvt2LViX4a" name="第 1 页">
        <mxGraphModel dx="1376" dy="490" grid="1" gridSize="10" guides="1" tooltips="1" connect="1" arrows="1" fold="1" page="1" pageScale="1" pageWidth="827" pageHeight="1169" background="#ffffff" math="0" shadow="0">
            <root>
                <mxCell id="0"/>
                <mxCell id="1" parent="0"/>
                <mxCell id="4" style="edgeStyle=none;html=1;exitX=0.5;exitY=1;exitDx=0;exitDy=0;fontColor=none;strokeColor=#000000;strokeWidth=2;" edge="1" parent="1" source="2">
                    <mxGeometry relative="1" as="geometry">
                        <mxPoint x="145" y="150" as="targetPoint"/>
                    </mxGeometry>
                </mxCell>
                <mxCell id="2" value="提交订单" style="rounded=1;whiteSpace=wrap;html=1;fillColor=#FF3333;strokeColor=#000000;fontColor=#000000;fontStyle=1;glass=0;shadow=0;strokeWidth=2;" vertex="1" parent="1">
                    <mxGeometry x="100" y="30" width="90" height="50" as="geometry"/>
                </mxCell>
                <mxCell id="3" value="" style="endArrow=classic;html=1;fontColor=none;" edge="1" parent="1">
                    <mxGeometry width="50" height="50" relative="1" as="geometry">
                        <mxPoint x="270" y="290" as="sourcePoint"/>
                        <mxPoint x="320" y="240" as="targetPoint"/>
                    </mxGeometry>
                </mxCell>
                <mxCell id="7" value="/submitOrder" style="text;html=1;align=center;verticalAlign=middle;resizable=0;points=[];autosize=1;strokeColor=none;fillColor=none;fontColor=none;" vertex="1" parent="1">
                    <mxGeometry x="140" y="90" width="90" height="30" as="geometry"/>
                </mxCell>
                <mxCell id="9" style="edgeStyle=none;html=1;strokeColor=#000000;strokeWidth=2;fontColor=none;" edge="1" parent="1" source="8">
                    <mxGeometry relative="1" as="geometry">
                        <mxPoint x="145" y="300" as="targetPoint"/>
                    </mxGeometry>
                </mxCell>
                <mxCell id="8" value="&lt;b&gt;收货地址&lt;br&gt;发票信息&lt;br&gt;使用的优惠券&lt;br&gt;备注&lt;br&gt;应付总价&lt;br&gt;用于验证的令牌token&lt;/b&gt;" style="whiteSpace=wrap;html=1;shadow=0;glass=0;strokeColor=#000000;strokeWidth=2;fontColor=none;fillColor=#FFFFFF;" vertex="1" parent="1">
                    <mxGeometry x="85" y="150" width="120" height="100" as="geometry"/>
                </mxCell>
                <mxCell id="12" value="" style="edgeStyle=none;html=1;strokeColor=#000000;strokeWidth=2;fontColor=#000000;" edge="1" parent="1" source="10" target="11">
                    <mxGeometry relative="1" as="geometry"/>
                </mxCell>
                <mxCell id="26" value="" style="edgeStyle=none;html=1;strokeColor=#000000;strokeWidth=2;fontColor=#000000;" edge="1" parent="1" source="10" target="25">
                    <mxGeometry relative="1" as="geometry"/>
                </mxCell>
                <mxCell id="10" value="使用令牌&lt;br&gt;进行验证" style="rhombus;whiteSpace=wrap;html=1;shadow=0;glass=0;strokeColor=#2D7600;strokeWidth=2;fontColor=#000000;fillColor=#60a917;fontStyle=1" vertex="1" parent="1">
                    <mxGeometry x="97.5" y="300" width="95" height="70" as="geometry"/>
                </mxCell>
                <mxCell id="14" value="" style="edgeStyle=none;html=1;strokeColor=#000000;strokeWidth=2;fontColor=#000000;" edge="1" parent="1" source="11" target="13">
                    <mxGeometry relative="1" as="geometry"/>
                </mxCell>
                <mxCell id="18" value="" style="edgeStyle=none;html=1;strokeColor=#000000;strokeWidth=2;fontColor=#000000;" edge="1" parent="1" source="11" target="17">
                    <mxGeometry relative="1" as="geometry"/>
                </mxCell>
                <mxCell id="21" value="" style="edgeStyle=none;html=1;strokeColor=#000000;strokeWidth=2;fontColor=#000000;exitX=0.5;exitY=1;exitDx=0;exitDy=0;" edge="1" parent="1" source="11" target="20">
                    <mxGeometry relative="1" as="geometry">
                        <Array as="points">
                            <mxPoint x="320" y="410"/>
                        </Array>
                    </mxGeometry>
                </mxCell>
                <mxCell id="11" value="订单是否存在" style="rhombus;whiteSpace=wrap;html=1;shadow=0;glass=0;strokeColor=#2D7600;strokeWidth=2;fontColor=#000000;fillColor=#60a917;fontStyle=1" vertex="1" parent="1">
                    <mxGeometry x="272.5" y="300" width="95" height="70" as="geometry"/>
                </mxCell>
                <mxCell id="24" value="" style="edgeStyle=none;html=1;strokeColor=#000000;strokeWidth=2;fontColor=#000000;" edge="1" parent="1" source="13" target="23">
                    <mxGeometry relative="1" as="geometry"/>
                </mxCell>
                <mxCell id="13" value="展示支付选择页" style="whiteSpace=wrap;html=1;fillColor=#3399FF;strokeColor=#2D7600;fontColor=#000000;shadow=0;glass=0;strokeWidth=2;fontStyle=1;" vertex="1" parent="1">
                    <mxGeometry x="435" y="305" width="95" height="60" as="geometry"/>
                </mxCell>
                <mxCell id="15" value="是" style="text;html=1;align=center;verticalAlign=middle;resizable=0;points=[];autosize=1;strokeColor=none;fillColor=none;fontColor=#000000;shadow=0;glass=0;strokeWidth=2;" vertex="1" parent="1">
                    <mxGeometry x="380" y="305" width="40" height="30" as="geometry"/>
                </mxCell>
                <mxCell id="17" value="通过判断redis中是否存在order:(token)这个key" style="whiteSpace=wrap;html=1;fillColor=#FFFFFF;strokeColor=#2D7600;fontColor=#000000;shadow=0;glass=0;strokeWidth=2;fontStyle=1;" vertex="1" parent="1">
                    <mxGeometry x="260" y="155" width="120" height="60" as="geometry"/>
                </mxCell>
                <mxCell id="19" value="验证逻辑" style="text;html=1;align=center;verticalAlign=middle;resizable=0;points=[];autosize=1;strokeColor=none;fillColor=none;fontColor=#000000;shadow=0;glass=0;strokeWidth=2;" vertex="1" parent="1">
                    <mxGeometry x="313" y="255" width="70" height="30" as="geometry"/>
                </mxCell>
                <mxCell id="20" value="非法请求&lt;br&gt;进入错误提示页面" style="whiteSpace=wrap;html=1;fillColor=#60a917;strokeColor=#2D7600;fontColor=#000000;shadow=0;glass=0;strokeWidth=2;fontStyle=1;" vertex="1" parent="1">
                    <mxGeometry x="435" y="380" width="95" height="60" as="geometry"/>
                </mxCell>
                <mxCell id="22" value="否" style="text;html=1;align=center;verticalAlign=middle;resizable=0;points=[];autosize=1;strokeColor=none;fillColor=none;fontColor=#000000;" vertex="1" parent="1">
                    <mxGeometry x="350" y="385" width="40" height="30" as="geometry"/>
                </mxCell>
                <mxCell id="23" value="结束" style="rounded=1;whiteSpace=wrap;html=1;fillColor=#a20025;strokeColor=#6F0000;fontColor=#000000;shadow=0;glass=0;strokeWidth=2;fontStyle=1;" vertex="1" parent="1">
                    <mxGeometry x="597.5" y="317.5" width="72.5" height="35" as="geometry"/>
                </mxCell>
                <mxCell id="32" value="" style="edgeStyle=none;html=1;strokeColor=#000000;strokeWidth=2;fontColor=#000000;" edge="1" parent="1" source="25" target="31">
                    <mxGeometry relative="1" as="geometry"/>
                </mxCell>
                <mxCell id="25" value="删除令牌" style="whiteSpace=wrap;html=1;fillColor=#FFFFFF;strokeColor=#000000;fontColor=#000000;shadow=0;glass=0;strokeWidth=2;fontStyle=1;" vertex="1" parent="1">
                    <mxGeometry x="105" y="415" width="85" height="25" as="geometry"/>
                </mxCell>
                <mxCell id="29" value="验证不通过" style="text;html=1;align=center;verticalAlign=middle;resizable=0;points=[];autosize=1;strokeColor=none;fillColor=none;fontColor=#000000;shadow=0;glass=0;strokeWidth=2;" vertex="1" parent="1">
                    <mxGeometry x="190" y="313" width="80" height="30" as="geometry"/>
                </mxCell>
                <mxCell id="30" value="验证通过" style="text;html=1;align=center;verticalAlign=middle;resizable=0;points=[];autosize=1;strokeColor=none;fillColor=none;fontColor=#000000;" vertex="1" parent="1">
                    <mxGeometry x="150" y="385" width="70" height="30" as="geometry"/>
                </mxCell>
                <mxCell id="34" value="" style="edgeStyle=none;html=1;strokeColor=#000000;strokeWidth=2;fontColor=#000000;" edge="1" parent="1" source="31" target="33">
                    <mxGeometry relative="1" as="geometry"/>
                </mxCell>
                <mxCell id="41" value="" style="edgeStyle=none;html=1;strokeColor=#000000;strokeWidth=2;fontColor=#000000;" edge="1" parent="1" source="31" target="40">
                    <mxGeometry relative="1" as="geometry"/>
                </mxCell>
                <mxCell id="31" value="创建订单号&lt;br&gt;ordersn" style="whiteSpace=wrap;html=1;fillColor=#FFFFFF;strokeColor=#000000;fontColor=#000000;shadow=0;glass=0;strokeWidth=2;fontStyle=1;" vertex="1" parent="1">
                    <mxGeometry x="101.25" y="502.5" width="92.5" height="47.5" as="geometry"/>
                </mxCell>
                <mxCell id="36" value="" style="edgeStyle=none;html=1;strokeColor=#000000;strokeWidth=2;fontColor=#000000;" edge="1" parent="1" source="33" target="35">
                    <mxGeometry relative="1" as="geometry"/>
                </mxCell>
                <mxCell id="33" value="在redist保存订单号&lt;br&gt;order:(token)=ordersn" style="whiteSpace=wrap;html=1;fillColor=#0050ef;strokeColor=#001DBC;fontColor=#ffffff;shadow=0;glass=0;strokeWidth=2;fontStyle=1;" vertex="1" parent="1">
                    <mxGeometry x="260" y="496.25" width="150" height="60" as="geometry"/>
                </mxCell>
                <mxCell id="35" value="准备订单的分布式锁闭锁信息" style="whiteSpace=wrap;html=1;fillColor=#60a917;strokeColor=#2D7600;fontColor=#ffffff;shadow=0;glass=0;strokeWidth=2;fontStyle=1;" vertex="1" parent="1">
                    <mxGeometry x="460" y="496.25" width="120" height="60" as="geometry"/>
                </mxCell>
                <mxCell id="38" value="" style="endArrow=classic;html=1;strokeColor=#000000;strokeWidth=2;fontColor=#000000;exitX=1;exitY=0.5;exitDx=0;exitDy=0;entryX=0.5;entryY=0;entryDx=0;entryDy=0;" edge="1" parent="1" source="35" target="13">
                    <mxGeometry width="50" height="50" relative="1" as="geometry">
                        <mxPoint x="480" y="470" as="sourcePoint"/>
                        <mxPoint x="530" y="420" as="targetPoint"/>
                        <Array as="points">
                            <mxPoint x="720" y="526"/>
                            <mxPoint x="720" y="280"/>
                            <mxPoint x="480" y="280"/>
                        </Array>
                    </mxGeometry>
                </mxCell>
                <mxCell id="39" value="等待闭锁完成" style="text;html=1;align=center;verticalAlign=middle;resizable=0;points=[];autosize=1;strokeColor=none;fillColor=none;fontColor=#000000;" vertex="1" parent="1">
                    <mxGeometry x="560" y="250" width="100" height="30" as="geometry"/>
                </mxCell>
                <mxCell id="44" value="" style="edgeStyle=none;html=1;strokeColor=#000000;strokeWidth=2;fontColor=#000000;" edge="1" parent="1" source="40" target="43">
                    <mxGeometry relative="1" as="geometry"/>
                </mxCell>
                <mxCell id="40" value="获取购物车中所有的选中项" style="whiteSpace=wrap;html=1;fillColor=#FFFFFF;strokeColor=#000000;fontColor=#000000;shadow=0;glass=0;strokeWidth=2;fontStyle=1;" vertex="1" parent="1">
                    <mxGeometry x="87.5" y="590" width="120" height="60" as="geometry"/>
                </mxCell>
                <mxCell id="42" value="远程调用" style="text;html=1;align=center;verticalAlign=middle;resizable=0;points=[];autosize=1;strokeColor=none;fillColor=none;fontColor=#000000;" vertex="1" parent="1">
                    <mxGeometry x="150" y="554.5" width="70" height="30" as="geometry"/>
                </mxCell>
                <mxCell id="46" value="" style="edgeStyle=none;html=1;strokeColor=#000000;strokeWidth=2;fontColor=#000000;" edge="1" parent="1" source="43" target="45">
                    <mxGeometry relative="1" as="geometry"/>
                </mxCell>
                <mxCell id="43" value="创建订单项" style="whiteSpace=wrap;html=1;fillColor=#FFFFFF;strokeColor=#000000;fontColor=#000000;shadow=0;glass=0;strokeWidth=2;fontStyle=1;" vertex="1" parent="1">
                    <mxGeometry x="96.25" y="690" width="102.5" height="50" as="geometry"/>
                </mxCell>
                <mxCell id="48" value="" style="edgeStyle=none;html=1;strokeColor=#000000;strokeWidth=2;fontColor=#000000;" edge="1" parent="1" source="45" target="47">
                    <mxGeometry relative="1" as="geometry"/>
                </mxCell>
                <mxCell id="45" value="获取收货地址信息，填充订单" style="whiteSpace=wrap;html=1;fillColor=#FFFFFF;strokeColor=#000000;fontColor=#000000;shadow=0;glass=0;strokeWidth=2;fontStyle=1;" vertex="1" parent="1">
                    <mxGeometry x="87.5" y="790" width="120" height="60" as="geometry"/>
                </mxCell>
                <mxCell id="52" value="" style="edgeStyle=none;html=1;strokeColor=#000000;strokeWidth=2;fontColor=#000000;" edge="1" parent="1" source="47" target="51">
                    <mxGeometry relative="1" as="geometry"/>
                </mxCell>
                <mxCell id="47" value="计算订单金额信息" style="whiteSpace=wrap;html=1;fillColor=#FFFFFF;strokeColor=#000000;fontColor=#000000;shadow=0;glass=0;strokeWidth=2;fontStyle=1;" vertex="1" parent="1">
                    <mxGeometry x="96.25" y="890" width="103.75" height="60" as="geometry"/>
                </mxCell>
                <mxCell id="54" value="" style="edgeStyle=none;html=1;strokeColor=#000000;strokeWidth=2;fontColor=#000000;" edge="1" parent="1" source="51" target="53">
                    <mxGeometry relative="1" as="geometry"/>
                </mxCell>
                <mxCell id="56" value="" style="edgeStyle=none;html=1;strokeColor=#000000;strokeWidth=2;fontColor=#000000;" edge="1" parent="1" source="51" target="55">
                    <mxGeometry relative="1" as="geometry"/>
                </mxCell>
                <mxCell id="63" value="" style="edgeStyle=none;html=1;strokeColor=#000000;strokeWidth=2;fontColor=#000000;" edge="1" parent="1" source="51" target="62">
                    <mxGeometry relative="1" as="geometry"/>
                </mxCell>
                <mxCell id="51" value="价格校验" style="rhombus;whiteSpace=wrap;html=1;fillColor=#60a917;strokeColor=#2D7600;fontColor=#000000;shadow=0;glass=0;strokeWidth=2;fontStyle=1;" vertex="1" parent="1">
                    <mxGeometry x="105" y="990" width="80" height="60" as="geometry"/>
                </mxCell>
                <mxCell id="53" value="校验方式：abs(页面传来的金额 — 后端计算的金额) &amp;lt; 10^-4" style="whiteSpace=wrap;html=1;fillColor=#60a917;strokeColor=#2D7600;fontColor=#000000;shadow=0;glass=0;strokeWidth=2;fontStyle=1;" vertex="1" parent="1">
                    <mxGeometry x="-75" y="990" width="120" height="60" as="geometry"/>
                </mxCell>
                <mxCell id="59" value="" style="edgeStyle=none;html=1;strokeColor=#000000;strokeWidth=2;fontColor=#000000;" edge="1" parent="1" source="55" target="58">
                    <mxGeometry relative="1" as="geometry"/>
                </mxCell>
                <mxCell id="55" value="提示商品价格变化，请重新确认" style="whiteSpace=wrap;html=1;fillColor=#FFFFFF;strokeColor=#000000;fontColor=#000000;shadow=0;glass=0;strokeWidth=2;fontStyle=1;" vertex="1" parent="1">
                    <mxGeometry x="245" y="990" width="120" height="60" as="geometry"/>
                </mxCell>
                <mxCell id="57" value="失败" style="text;html=1;align=center;verticalAlign=middle;resizable=0;points=[];autosize=1;strokeColor=none;fillColor=none;fontColor=#000000;" vertex="1" parent="1">
                    <mxGeometry x="185" y="990" width="50" height="30" as="geometry"/>
                </mxCell>
                <mxCell id="61" value="" style="edgeStyle=none;html=1;strokeColor=#000000;strokeWidth=2;fontColor=#000000;" edge="1" parent="1" source="58" target="60">
                    <mxGeometry relative="1" as="geometry"/>
                </mxCell>
                <mxCell id="58" value="重定向到订单确认页面" style="whiteSpace=wrap;html=1;fillColor=#FFFFFF;strokeColor=#000000;fontColor=#000000;shadow=0;glass=0;strokeWidth=2;fontStyle=1;" vertex="1" parent="1">
                    <mxGeometry x="414" y="990" width="120" height="60" as="geometry"/>
                </mxCell>
                <mxCell id="60" value="结束" style="whiteSpace=wrap;html=1;fillColor=#CC0000;strokeColor=#990000;fontColor=#000000;shadow=0;glass=0;strokeWidth=2;fontStyle=1;rounded=1;" vertex="1" parent="1">
                    <mxGeometry x="431" y="1080" width="86" height="30" as="geometry"/>
                </mxCell>
                <mxCell id="66" value="" style="edgeStyle=none;html=1;strokeColor=#000000;strokeWidth=2;fontColor=#000000;" edge="1" parent="1" source="62" target="65">
                    <mxGeometry relative="1" as="geometry"/>
                </mxCell>
                <mxCell id="62" value="在redist中保存订单信息" style="whiteSpace=wrap;html=1;fillColor=#f5f5f5;strokeColor=#666666;fontColor=#333333;shadow=0;glass=0;strokeWidth=2;fontStyle=1;" vertex="1" parent="1">
                    <mxGeometry x="85" y="1100" width="120" height="60" as="geometry"/>
                </mxCell>
                <mxCell id="64" value="成功" style="text;html=1;align=center;verticalAlign=middle;resizable=0;points=[];autosize=1;strokeColor=none;fillColor=none;fontColor=#000000;" vertex="1" parent="1">
                    <mxGeometry x="143.75" y="1060" width="50" height="30" as="geometry"/>
                </mxCell>
                <mxCell id="77" value="" style="edgeStyle=none;html=1;strokeColor=#000000;strokeWidth=2;fontColor=#000000;" edge="1" parent="1" source="65" target="76">
                    <mxGeometry relative="1" as="geometry"/>
                </mxCell>
                <mxCell id="79" value="" style="edgeStyle=none;html=1;strokeColor=#000000;strokeWidth=2;fontColor=#000000;" edge="1" parent="1" source="65" target="78">
                    <mxGeometry relative="1" as="geometry"/>
                </mxCell>
                <mxCell id="65" value="进行库存锁定" style="whiteSpace=wrap;html=1;fillColor=#f5f5f5;strokeColor=#666666;fontColor=#333333;shadow=0;glass=0;strokeWidth=2;fontStyle=1;" vertex="1" parent="1">
                    <mxGeometry x="85" y="1240" width="120" height="60" as="geometry"/>
                </mxCell>
                <mxCell id="67" value="远程调用" style="text;html=1;align=center;verticalAlign=middle;resizable=0;points=[];autosize=1;strokeColor=none;fillColor=none;fontColor=#000000;" vertex="1" parent="1">
                    <mxGeometry x="150" y="1190" width="70" height="30" as="geometry"/>
                </mxCell>
                <mxCell id="70" value="" style="edgeStyle=none;html=1;strokeColor=#000000;strokeWidth=2;fontColor=#000000;" edge="1" parent="1" source="68" target="69">
                    <mxGeometry relative="1" as="geometry"/>
                </mxCell>
                <mxCell id="68" value="" style="whiteSpace=wrap;html=1;aspect=fixed;rounded=1;shadow=0;glass=0;strokeColor=#990000;strokeWidth=2;fontColor=#000000;fillColor=none;" vertex="1" parent="1">
                    <mxGeometry x="70" y="290" width="160" height="160" as="geometry"/>
                </mxCell>
                <mxCell id="72" value="" style="edgeStyle=none;html=1;strokeColor=#000000;strokeWidth=2;fontColor=#000000;" edge="1" parent="1" source="69" target="71">
                    <mxGeometry relative="1" as="geometry"/>
                </mxCell>
                <mxCell id="69" value="使用redis的lua脚本&lt;br&gt;实现原子验证令牌和锁定令牌" style="whiteSpace=wrap;html=1;fillColor=#66FFFF;strokeColor=#000000;fontColor=#000000;rounded=1;shadow=0;glass=0;strokeWidth=2;" vertex="1" parent="1">
                    <mxGeometry x="-150" y="340" width="120" height="60" as="geometry"/>
                </mxCell>
                <mxCell id="71" value="&lt;span style=&quot;&quot;&gt;if redis.call('get', KEYS[1]) == ARGV[1] then return redis.call('del', KEYS[1]) else return 0 end&lt;/span&gt;" style="whiteSpace=wrap;html=1;fillColor=#66FFFF;strokeColor=#000000;fontColor=#000000;rounded=1;shadow=0;glass=0;strokeWidth=2;" vertex="1" parent="1">
                    <mxGeometry x="-155" y="476.25" width="130" height="80" as="geometry"/>
                </mxCell>
                <mxCell id="83" value="" style="edgeStyle=none;html=1;strokeColor=#000000;strokeWidth=2;fontColor=#000000;" edge="1" parent="1" source="76" target="82">
                    <mxGeometry relative="1" as="geometry"/>
                </mxCell>
                <mxCell id="76" value="发送消息给MQ" style="whiteSpace=wrap;html=1;fillColor=#f5f5f5;strokeColor=#666666;fontColor=#333333;shadow=0;glass=0;strokeWidth=2;fontStyle=1;" vertex="1" parent="1">
                    <mxGeometry x="85" y="1380" width="120" height="60" as="geometry"/>
                </mxCell>
                <mxCell id="78" value="抛异常，提示错误信息" style="whiteSpace=wrap;html=1;fillColor=#f5f5f5;strokeColor=#666666;fontColor=#333333;shadow=0;glass=0;strokeWidth=2;fontStyle=1;" vertex="1" parent="1">
                    <mxGeometry x="285" y="1240" width="85" height="60" as="geometry"/>
                </mxCell>
                <mxCell id="80" value="失败" style="text;html=1;align=center;verticalAlign=middle;resizable=0;points=[];autosize=1;strokeColor=none;fillColor=none;fontColor=#000000;" vertex="1" parent="1">
                    <mxGeometry x="215" y="1235" width="50" height="30" as="geometry"/>
                </mxCell>
                <mxCell id="81" value="成功" style="text;html=1;align=center;verticalAlign=middle;resizable=0;points=[];autosize=1;strokeColor=none;fillColor=none;fontColor=#000000;" vertex="1" parent="1">
                    <mxGeometry x="145" y="1325" width="50" height="30" as="geometry"/>
                </mxCell>
                <mxCell id="85" value="" style="edgeStyle=none;html=1;strokeColor=#000000;strokeWidth=2;fontColor=#000000;" edge="1" parent="1" source="82" target="84">
                    <mxGeometry relative="1" as="geometry"/>
                </mxCell>
                <mxCell id="82" value="删除购物车里的数据" style="whiteSpace=wrap;html=1;fillColor=#f5f5f5;strokeColor=#666666;fontColor=#333333;shadow=0;glass=0;strokeWidth=2;fontStyle=1;" vertex="1" parent="1">
                    <mxGeometry x="85" y="1480" width="120" height="60" as="geometry"/>
                </mxCell>
                <mxCell id="84" value="结束" style="rounded=1;whiteSpace=wrap;html=1;fillColor=#FF3333;strokeColor=#666666;fontColor=#333333;shadow=0;glass=0;strokeWidth=2;fontStyle=1;" vertex="1" parent="1">
                    <mxGeometry x="112.5" y="1580" width="65" height="30" as="geometry"/>
                </mxCell>
            </root>
        </mxGraphModel>
    </diagram>
</mxfile>